<?xml version="1.0" encoding="UTF-8"?>
<svg width="74px" height="19px" viewBox="0 0 74 19" version="1.1" xmlns="http://www.w3.org/2000/svg" xmlns:xlink="http://www.w3.org/1999/xlink">
    <!-- Generator: Sketch 51.3 (57544) - http://www.bohemiancoding.com/sketch -->
    <title>Amber</title>
    <desc>Created with Sketch.</desc>
    <defs></defs>
    <g id="Page-1" stroke="none" stroke-width="1" fill="none" fill-rule="evenodd">
        <g id="Dashboard" transform="translate(-165.000000, -37.000000)" fill="#000000">
            <g id="Group-18" transform="translate(-10.000000, -1.000000)">
                <g id="Group" transform="translate(146.000000, 38.558594)">
                    <path d="M42.9279894,18.1033048 L41.3227256,13.1172581 L34.2449715,13.1172581 L32.6640298,18.1033048 L29.696724,18.1033048 L35.4610804,0.737268868 L40.1795832,0.737268868 L45.9682618,18.1033048 L42.9279894,18.1033048 Z M37.2609217,3.58296383 L35.0719256,10.5147849 L40.4714493,10.5147849 L38.258131,3.58296383 L37.2609217,3.58296383 Z M60.6927354,5.40712727 C63.7086856,5.40712727 65.0464055,7.32857943 65.0464055,10.2958853 L65.0464055,18.1033048 L62.2979992,18.1033048 L62.2979992,10.6363958 C62.2979992,8.83655454 61.6169782,7.86366737 60.1576475,7.86366737 C58.4794171,7.86366737 57.5551743,9.17706505 57.5551743,10.9769063 L57.5551743,18.1033048 L54.8067681,18.1033048 L54.8067681,10.660718 C54.8067681,8.86087672 54.0771027,7.86366737 52.6664163,7.86366737 C50.9395416,7.86366737 50.0396209,9.42028684 50.0396209,11.341739 L50.0396209,18.1033048 L47.2912147,18.1033048 L47.2912147,5.7233156 L49.9666544,5.7233156 L49.9666544,6.8907802 L50.453098,6.8907802 C51.0368303,5.96653739 52.1556505,5.40712727 53.6149813,5.40712727 C55.0499899,5.40712727 56.1688101,5.94221522 56.8255089,6.96374674 L57.3119525,6.96374674 C58.0416179,5.96653739 59.1847603,5.40712727 60.6927354,5.40712727 Z M74.3956775,5.40712727 C77.7764604,5.40712727 79.89249,8.15553352 79.89249,11.9011491 C79.89249,15.6467647 77.8007826,18.4194931 74.3956775,18.4194931 C72.571514,18.4194931 71.5013382,17.7384721 70.8203171,16.8871959 L70.3338736,16.8871959 L70.3338736,18.1033048 L67.6584338,18.1033048 L67.6584338,0.421080539 L70.4068401,0.421080539 L70.4068401,6.93942456 L70.8932837,6.93942456 C71.5499825,6.06382611 72.5958362,5.40712727 74.3956775,5.40712727 Z M73.7633008,16.0845639 C76.0252635,16.0845639 77.1440837,14.3090449 77.1440837,11.9011491 C77.1440837,9.51757556 76.0252635,7.74205648 73.7633008,7.74205648 C71.3554051,7.74205648 70.3338736,9.73647517 70.3338736,11.9011491 C70.3338736,14.0901452 71.3554051,16.0845639 73.7633008,16.0845639 Z M93.0846663,11.2201281 L93.0846663,12.1443709 L83.9395269,12.1443709 C84.0124934,14.6738775 85.179958,16.0845639 87.4175985,16.0845639 C88.9012515,16.0845639 89.7768499,15.5008316 90.1173604,14.5036223 L92.914411,14.5036223 C92.4522896,16.7899071 90.603804,18.4194931 87.3932763,18.4194931 C83.5017277,18.4194931 81.2154428,15.6954091 81.2154428,11.8281826 C81.2154428,7.93663391 83.5260499,5.40712727 87.3203098,5.40712727 C91.017281,5.40712727 93.0360219,8.00960045 93.0846663,11.2201281 Z M87.2959876,7.5961234 C85.3745355,7.5961234 84.3773261,8.69062146 84.0611378,10.1013079 L90.2632935,10.1013079 C90.0930382,8.71494364 89.0958289,7.5961234 87.2959876,7.5961234 Z M102.725804,5.7233156 L102.725804,8.27714442 L101.679951,8.27714442 C99.1747662,8.27714442 97.8613686,9.73647517 97.8613686,12.3146262 L97.8613686,18.1033048 L95.1129623,18.1033048 L95.1129623,5.7233156 L97.788402,5.7233156 L97.788402,7.18264635 L98.2748456,7.18264635 C98.7856114,6.50162534 99.8071429,5.7233156 101.704273,5.7233156 L102.725804,5.7233156 Z" id="Amber"></path>
                </g>
            </g>
        </g>
    </g>
</svg>